<?xml version="1.0" encoding="UTF-8"?>
<svg id="Layer_1" data-name="Layer 1" xmlns="http://www.w3.org/2000/svg" version="1.1" viewBox="0 0 680.3 164.3">
  <defs>
    <style>
      .cls-1 {
        fill: #fff;
        stroke-width: 0px;
      }
    </style>
  </defs>
  <g>
    <path class="cls-1" d="M66.3,84.8v-23h-32.2v23h-3.9v-50.6h3.9v24.1h32.2v-24.1h3.9v50.6h-3.9Z"/>
    <path class="cls-1" d="M101,57.6h29.6v3.5h-29.6v19.9h31.9v3.8h-35.8v-50.6h34.9v3.7h-31.1v19.7Z"/>
    <path class="cls-1" d="M160.6,34.2v46.9h28.5v3.7h-32.4v-50.6h3.9Z"/>
    <path class="cls-1" d="M214,34.2v46.9h28.5v3.7h-32.4v-50.6h3.9Z"/>
    <path class="cls-1" d="M308.4,59.6c0,13.3-8.5,26.1-25.5,26.1s-25.5-12.9-25.5-26.2,8.5-26,25.5-26,25.6,12.5,25.5,26.2ZM261.3,59.5c0,11.4,7.3,22.5,21.7,22.5s21.8-11.1,21.8-22.5-7.2-22.5-21.8-22.5-21.8,10.6-21.7,22.5Z"/>
    <path class="cls-1" d="M386.3,34.2c9.6,0,17.2,4.4,17.2,14.5s-2.2,8.1-7,10c6.1,1.8,8.6,7.8,8.6,11.6,0,11.1-8.8,14.5-18.8,14.5h-23.2v-50.6h23.2ZM371.2,55.2h15.2c6.1,0,9.1-2.4,9.1-6.4s-3.1-7.3-9.2-7.3h-15.2v13.7ZM371.2,77.3h15.2c4.5,0,10.7-1.4,10.7-7s-6-7.9-10.6-7.9h-15.2v14.9Z"/>
    <path class="cls-1" d="M476.2,59.7c0,13.7-8.3,26.2-25.9,26.2s-25.9-12.8-25.9-26.1,10.8-26.5,26-26.5c17.3,0,25.7,12.8,25.7,26.4ZM450.3,78.4c12.6,0,17.8-8.9,17.8-18.6s-5.3-19-17.7-19.2c-11.7,0-18,8.2-18,19.2.1,9,5.3,18.6,17.8,18.6Z"/>
    <path class="cls-1" d="M533.3,70.2v-36h8.1v50.6h-6.1l-28.7-35.7v35.7h-8.2v-50.6h6.2l28.7,36Z"/>
    <path class="cls-1" d="M585.9,34.2c17.3,0,25.1,12.4,25.4,24.9.3,12.8-7.7,25.7-25.4,25.7h-19.2v-50.6h19.2ZM574.8,77h11.1c12.4,0,17.6-9.1,17.3-18-.2-8.5-5.4-17.1-17.3-17.1h-11.1v35Z"/>
    <path class="cls-1" d="M633.6,84.8v-50.6h8v50.6h-8Z"/>
  </g>
  <g>
    <path class="cls-1" d="M133.9,117.9h-7.5v-3.3h18.5v3.3h-7.4v19.4h-3.7v-19.4Z"/>
    <path class="cls-1" d="M169.2,137.3v-9.4h-12v9.4h-3.6v-22.7h3.6v9.9h12v-9.9h3.6v22.7h-3.6Z"/>
    <path class="cls-1" d="M200.4,137.3h-16.8v-22.7h16.7v3.5h-13v6.1h12.5v3.4h-12.5v6.1h13.1v3.6Z"/>
    <path class="cls-1" d="M245.3,126.1c0,6.1-3.7,11.7-11.6,11.7s-11.6-5.7-11.6-11.7,4.8-11.9,11.7-11.9c7.7,0,11.5,5.7,11.5,11.9ZM233.7,134.5c5.6,0,8-4,8-8.3s-2.4-8.5-7.9-8.6c-5.3,0-8.1,3.7-8.1,8.6,0,4,2.4,8.3,8,8.3Z"/>
    <path class="cls-1" d="M254.8,137.3v-22.7h16.1v3.5h-12.4v6.9h11.8v3.4h-11.8v8.9h-3.6Z"/>
    <path class="cls-1" d="M280.2,137.3v-22.7h16.1v3.5h-12.4v6.9h11.8v3.4h-11.8v8.9h-3.6Z"/>
    <path class="cls-1" d="M305.7,137.3v-22.7h3.6v22.7h-3.6Z"/>
    <path class="cls-1" d="M339.2,134.4c-2.3,2.3-5.4,3.4-8.5,3.4-8.2,0-11.9-5.7-12-11.6,0-6,3.9-11.9,12-11.9s6,1.1,8.3,3.4l-2.4,2.3c-1.6-1.6-3.8-2.3-5.9-2.3-5.8,0-8.4,4.2-8.4,8.4,0,4.2,2.5,8.3,8.4,8.3s4.4-.9,6-2.5l2.5,2.5Z"/>
    <path class="cls-1" d="M348.1,137.3v-22.7h3.6v22.7h-3.6Z"/>
    <path class="cls-1" d="M378.2,132.6h-12.3l-2.1,4.8h-3.9l10.2-22.7h4l10.2,22.7h-3.9l-2.2-4.8ZM372.1,118.5l-4.8,10.8h9.6l-4.8-10.8Z"/>
    <path class="cls-1" d="M396.2,114.6v19.3h12v3.4h-15.6v-22.7h3.6Z"/>
    <path class="cls-1" d="M445.7,119.8c-1.6-1.6-4-2.4-6.1-2.4-5.3,0-8.4,4-8.4,8.8,0,4.2,2.5,8.2,8.4,8.2s3.7-.5,5.5-2v-4.6h-6.3v-3.2h9.7v9.3c-2.3,2.5-5.1,4-8.9,4-8.3,0-11.9-5.5-11.9-11.6s4.2-12.1,11.9-12.1,6.1,1.1,8.4,3.4l-2.3,2.3Z"/>
    <path class="cls-1" d="M477.3,114.7v13.3c0,6.7-4.4,10-9.9,9.8-5.1-.1-9.4-3.4-9.4-9.8v-13.3h3.6v13.3c0,4.1,2.4,6.4,5.8,6.5,3.6.2,6.3-2.2,6.3-6.5v-13.3h3.6Z"/>
    <path class="cls-1" d="M487.8,137.3v-22.7h3.6v22.7h-3.6Z"/>
    <path class="cls-1" d="M510.9,114.6c7.7,0,11.3,5.5,11.4,11.2.1,5.7-3.4,11.5-11.4,11.5h-8.6v-22.7h8.6ZM505.9,133.8h5c5.5,0,7.9-4.1,7.8-8.1,0-3.8-2.4-7.7-7.8-7.7h-5v15.7Z"/>
    <path class="cls-1" d="M548.5,137.3h-16.8v-22.7h16.7v3.5h-13v6.1h12.5v3.4h-12.5v6.1h13.1v3.6Z"/>
  </g>
</svg>