<?xml version="1.0" encoding="UTF-8"?>
<svg xmlns="http://www.w3.org/2000/svg" version="1.1" viewBox="0 0 230 36.7">
  <defs>
    <style>
      .cls-1 {
        fill: #fff;
      }
    </style>
  </defs>
  <!-- Generator: Adobe Illustrator 28.7.2, SVG Export Plug-In . SVG Version: 1.2.0 Build 154)  -->
  <g>
    <g id="Layer_1">
      <g>
        <path class="cls-1" d="M54.1,13.7l-1.6,9.8c-.1.6-.4.7-.9.7h-.6c-.4,0-.7-.3-.8-.7l-1.4-5.4c0-.1,0-.1,0-.1h0q0,0,0,.1l-1.4,5.4c-.1.4-.4.7-.8.7h-.6c-.5,0-.8-.1-.9-.7l-1.6-9.8h0c0-.2.1-.3.3-.3h.8c.1,0,.2,0,.2.2l1.4,9.2c0,.2,0,.2,0,.2s0,0,.1-.2l1.4-5.4c.1-.4.3-.6.7-.6h.9c.4,0,.6.2.7.6l1.4,5.4c0,.1,0,.2.1.2s0,0,0-.2l1.4-9.2c0-.2.1-.2.2-.2h.8c.2,0,.3.1.3.2h0Z"/>
        <path class="cls-1" d="M66.7,24.1h-.9c-.1,0-.2-.1-.3-.2l-.9-3.3h-3.7l-.9,3.3c0,.1-.1.2-.3.2h-.9c-.2,0-.2-.1-.2-.2h0c0-.1,2.7-9.5,2.7-9.5.3-.9.9-1.1,1.5-1.1s1.2.2,1.5,1.1l2.7,9.4s0,0,0,.1c0,.1,0,.2-.2.2ZM63.1,14.7c0-.2-.1-.3-.3-.3s-.3.1-.3.3l-1.3,4.8h3.2l-1.3-4.8Z"/>
        <path class="cls-1" d="M79.5,13.7l-2.6,9.4c-.3.9-.9,1.1-1.5,1.1s-1.2-.2-1.5-1.1l-2.7-9.4s0,0,0,0c0-.2.1-.2.3-.2h.8c.1,0,.2.1.3.2l2.5,9.2c0,.2.1.3.3.3s.2-.1.3-.3l2.5-9.2c0-.1.1-.2.2-.2h.9c.2,0,.3.1.3.2,0,0,0,0,0,0h0Z"/>
        <path class="cls-1" d="M91,24.2c-.5,0-2,0-2.8,0-2,0-3.1-.8-3.1-2.7v-5.6c0-1.9,1.1-2.7,3.1-2.7s2.2,0,2.8,0c0,0,.1.1.1.2v.7c0,.1,0,.2-.2.2h-2.8c-1.5,0-1.8.4-1.8,1.5v2h4.4c.2,0,.3.1.3.3v.5c0,.2-.1.3-.3.3h-4.4v2.4c0,1.1.2,1.5,1.8,1.5h2.8c.1,0,.2,0,.2.2v.7c0,0,0,.2-.1.2h0Z"/>
        <path class="cls-1" d="M104.8,24.1h-.9c-.2,0-.3,0-.4-.2l-2.6-4.3h-.4c-.5,0-.8,0-1.6,0v4.3c0,.2-.1.3-.3.3h-.8c-.2,0-.3-.1-.3-.3v-10.1c0-.2,0-.3.3-.3.6,0,1.7-.1,2.5-.1,2.3,0,4,.8,4,3.1h0c0,1.7-1,2.7-2.3,3l2.6,4.4c0,0,0,0,0,.1,0,0-.1.2-.2.2ZM103.3,16.4c0-1.5-.9-1.9-2.7-1.9s-1.2,0-1.6,0v4c.6,0,1.2,0,1.6,0,1.8,0,2.7-.4,2.7-2h0Z"/>
        <path class="cls-1" d="M116.9,24.1c-.4,0-1.5.1-2.8.1s-3.1-.3-3.1-2.7v-7.9c0-.2.1-.3.3-.3h.7c.2,0,.3.1.3.3v7.9c0,1.1.2,1.5,1.8,1.5h2.8c.1,0,.2,0,.2.2v.7c0,0,0,.2-.1.2h0Z"/>
        <path class="cls-1" d="M128.3,24.2c-.5,0-2,0-2.8,0-2,0-3.1-.8-3.1-2.7v-5.6c0-1.9,1.1-2.7,3.1-2.7s2.2,0,2.8,0c0,0,.1.1.1.2v.7c0,.1,0,.2-.2.2h-2.8c-1.5,0-1.8.4-1.8,1.5v2h4.4c.2,0,.3.1.3.3v.5c0,.2-.1.3-.3.3h-4.4v2.4c0,1.1.2,1.5,1.8,1.5h2.8c.1,0,.2,0,.2.2v.7c0,0,0,.2-.1.2h0Z"/>
        <path class="cls-1" d="M141.4,13.7l-2.2,5.1c-.3.6-.5.8-.8,1v4.1c0,.2-.1.3-.3.3h-.8c-.2,0-.3-.2-.3-.3v-4.1c-.3-.1-.5-.4-.8-1l-2.2-5.1c0,0,0-.1,0-.2,0-.1.1-.2.3-.2h.9c.1,0,.2.1.3.2l2,4.7c.2.3.2.4.3.4s.2,0,.3-.4l2-4.7c0-.1.1-.2.3-.2h.9c.2,0,.3,0,.3.2,0,0,0,.1,0,.2Z"/>
        <path class="cls-1" d="M155.6,24c-.6.1-1.2.2-2.4.2-1.8,0-3.8-1-3.8-4.5v-2c0-3.5,2-4.5,3.8-4.5s1.8.1,2.4.2c.1,0,.2,0,.2.2v.7c0,0,0,.2-.2.2h0c-.5,0-1.6-.1-2.4-.1-1.4,0-2.5.8-2.5,3.3v2c0,2.4,1.1,3.3,2.5,3.3s1.9,0,2.4-.1h0c.2,0,.2,0,.2.2v.6c0,.2-.1.3-.3.3h0Z"/>
        <path class="cls-1" d="M165.1,24.2c-2.3,0-3.9-1.3-3.9-4.6v-1.9c0-3.2,1.6-4.6,3.9-4.6s3.9,1.3,3.9,4.6v1.9c0,3.2-1.6,4.6-3.9,4.6ZM167.6,17.8c0-2.4-1-3.4-2.6-3.4s-2.6.9-2.6,3.4v1.9c0,2.5,1,3.4,2.6,3.4s2.6-.9,2.6-3.4v-1.9Z"/>
        <path class="cls-1" d="M178.9,24.2c-2.3,0-3.7-1.3-3.7-4v-6.6c0-.2.1-.3.3-.3h.8c.2,0,.3.1.3.3v6.6c0,1.9.6,2.9,2.4,2.9s2.4-1,2.4-2.9v-6.6c0-.2.1-.3.3-.3h.8c.1,0,.3.1.3.3v6.6c0,2.8-1.4,4-3.7,4Z"/>
        <path class="cls-1" d="M196.3,24.1h-.9c-.2,0-.4,0-.5-.2l-4.5-8.5s0,0,0,0h0v8.5c0,.2-.1.3-.3.3h-.8c-.2,0-.3,0-.3-.2v-10.2c0-.2.2-.4.4-.4h.8c.4,0,.5,0,.6.3l4.4,8.5h0c0,0,0,0,0,0v-8.5c0-.2.1-.3.3-.3h.8c.2,0,.3.1.3.3v10.1c0,.2-.2.4-.4.4h0Z"/>
        <path class="cls-1" d="M209.2,24c-.6.1-1.2.2-2.4.2-1.8,0-3.8-1-3.8-4.5v-2c0-3.5,2-4.5,3.8-4.5s1.8.1,2.4.2c.1,0,.2,0,.2.2v.7c0,0,0,.2-.2.2h0c-.5,0-1.6-.1-2.4-.1-1.4,0-2.5.8-2.5,3.3v2c0,2.4,1.1,3.3,2.5,3.3s1.9,0,2.4-.1h0c.2,0,.2,0,.2.2v.6c0,.2-.1.3-.3.3h0Z"/>
        <path class="cls-1" d="M216.6,24.1h-.8c-.1,0-.3-.1-.3-.3v-10.2c0-.2.1-.3.3-.3h.8c.1,0,.3.1.3.3v10.2c0,.1-.1.3-.3.3Z"/>
        <path class="cls-1" d="M229.5,24.1c-.4,0-1.4.1-2.8.1s-3.1-.3-3.1-2.7v-7.9c0-.2.1-.3.3-.3h.7c.2,0,.3.1.3.3v7.9c0,1.1.2,1.5,1.8,1.5h2.8c.1,0,.2,0,.2.2v.7c0,0,0,.2-.1.2h0Z"/>
        <path class="cls-1" d="M6.5,23.7c1.5-2.8,5.7-9.3,11.1-10.2,5.4-1,7.5,3,6.8,7.2,2.5-1.5,5-5.9,6.1-8v-6.4c0-1.4-1.2-2.6-2.6-2.6H3C1.6,3.7.4,4.9.4,6.3v7.3c1.6,5.2,5,9.1,6.1,10.1Z"/>
        <path class="cls-1" d="M23.4,23c-1.6.8-1.1-.7-.8-2.6.3-1.9.4-4.3-2.1-5.3-3.1-1.3-6.1,1.4-8.4,4.6-2.3,3.2-4,6.7-4.7,7.2-.7.4-1.8-.2-3.1-1.2-1.3-1-2.7-2.3-4-3.3v8.9c0,.7.3,1.4.8,1.9.5.5,1.1.8,1.8.8h24.9c.7,0,1.4-.3,1.8-.8s.8-1.1.8-1.9v-14.1c-1,1-2.2,2.2-3.4,3.3-1.2,1.1-2.5,2.1-3.5,2.6Z"/>
      </g>
    </g>
  </g>
</svg>